<svg width="48" height="36" viewBox="0 0 48 36" fill="none" xmlns="http://www.w3.org/2000/svg">
<path d="M28.7577 29.5961H23.3286C23.0511 31.8419 22.0793 33.6849 20.1774 34.942C18.9185 35.7744 17.5416 36.0595 16.0671 35.9892C12.9189 35.8388 10.9309 33.8671 9.69716 29.5634C9.35294 29.5496 8.96521 29.5515 8.58039 29.5139C6.52572 29.316 5.59459 27.9659 5.65357 26.3278C5.71835 24.5313 5.68838 22.7298 5.66034 20.9304C5.64197 19.7456 6.02583 18.7895 6.91344 18.0125C7.1542 17.8016 7.36692 17.4314 7.39496 17.1157C7.46458 16.3496 7.4172 15.5736 7.4172 14.659C6.63884 14.6392 5.93687 14.6184 5.2349 14.6036C4.83557 14.5947 4.4343 14.6174 4.03787 14.5818C3.57569 14.5393 3.3185 14.2651 3.32527 13.7702C3.33203 13.3307 3.5844 13.0724 3.97406 13.0179C4.40626 12.9576 4.85007 12.9744 5.28808 12.9704C5.92527 12.9645 6.56343 12.9684 7.30794 12.9684V10.3811C6.98403 10.3286 6.63691 10.3514 6.37681 10.2089C6.13025 10.0743 5.85952 9.79118 5.80537 9.52889C5.72415 9.13792 5.99392 8.83306 6.39518 8.74497C6.66398 8.68657 6.94342 8.68063 7.31568 8.64104V6.11408C7.07879 6.08636 6.77808 6.02203 6.47737 6.02005C4.95933 6.00916 3.44129 6.0151 1.92325 6.0151C1.72311 6.0151 1.52392 6.02005 1.32377 6.0151C0.436157 5.99728 -0.0250563 5.69539 0.00105009 5.15298C0.0252227 4.65017 0.45066 4.37401 1.2793 4.36807C2.87662 4.35817 4.47491 4.36609 6.07224 4.36609C6.46383 4.36609 6.85446 4.36609 7.36982 4.36609C7.38723 3.54258 7.4027 2.82201 7.4172 2.10044C7.44621 0.649396 7.94706 0.105006 9.35101 0.0169139C9.66912 -0.00288214 9.99013 0.0119649 10.3092 0.0109751C16.422 0.00800566 22.5338 0.00305666 28.6456 8.7264e-05C28.925 8.7264e-05 29.2064 -0.00288213 29.4839 0.0258221C30.7467 0.157465 31.2639 0.710763 31.293 1.99849C31.3152 2.97938 31.293 3.96127 31.3017 4.94216C31.3046 5.25889 31.3403 5.57563 31.3655 5.95868C33.7914 5.36678 36.1826 5.68748 38.5602 5.62809C40.0947 5.59048 41.3207 6.29521 42.0295 7.64233C43.9401 11.2739 45.7781 14.9461 47.594 18.6291C47.8705 19.1893 47.972 19.8891 47.9846 20.5275C48.0223 22.4072 47.9836 24.2888 47.9585 26.1684C47.9276 28.4836 46.9123 29.4981 44.6246 29.5189C43.9139 29.5248 43.2033 29.5199 42.4288 29.5199C42.071 31.741 41.2182 33.5741 39.412 34.8222C38.1763 35.6764 36.8207 36.0387 35.3356 35.9951C32.0346 35.8971 30.0224 33.967 28.7568 29.5951L28.7577 29.5961ZM42.3205 27.8897C43.0998 27.8897 43.8521 27.9015 44.6043 27.8867C45.9899 27.859 46.4018 27.4561 46.4173 26.0625C46.4356 24.3878 46.3921 22.712 46.4337 21.0383C46.4559 20.1514 46.279 19.3378 45.8922 18.5598C44.9698 16.7039 44.0619 14.8411 43.1134 12.9991C42.3505 11.5194 41.547 10.0614 40.7435 8.60343C40.23 7.67103 39.4594 7.21771 38.3813 7.24443C36.7463 7.28402 35.1084 7.23552 33.4733 7.25928C31.9031 7.28303 31.3171 7.89473 31.3046 9.50909C31.2881 11.7559 31.2988 14.0028 31.2978 16.2496C31.2978 18.5113 30.8714 18.9379 28.6117 18.9379C23.1042 18.9379 17.5968 18.9379 12.0893 18.9379C11.0914 18.9379 10.0926 18.9142 9.09671 18.9518C7.88228 18.9973 7.24799 19.6149 7.21609 20.8591C7.17161 22.6556 7.18031 24.4541 7.21028 26.2516C7.22962 27.374 7.65603 27.7966 8.73413 27.8748C9.11799 27.9025 9.50571 27.8788 9.86444 27.8788C10.8226 24.5659 12.7922 22.5151 16.0807 22.3082C19.8922 22.0687 22.1528 24.2482 23.2899 27.8224H28.8863C30.5185 23.7919 32.6234 22.1498 35.9409 22.2706C38.9421 22.3804 41.1302 24.2601 42.3205 27.8897ZM29.6415 1.78866C28.1795 1.53923 9.96499 1.59663 9.08995 1.84012V4.36609C10.0636 4.36609 10.9696 4.36411 11.8766 4.36609C13.0736 4.36906 14.2725 4.3463 15.4686 4.39183C16.0352 4.4136 16.3098 4.76795 16.2692 5.24899C16.2286 5.73499 15.9385 5.97254 15.4831 6.00619C15.2453 6.02401 15.0045 6.01411 14.7647 6.01411C13.1683 6.01411 11.571 6.00916 9.97466 6.01906C9.67202 6.02104 9.36938 6.08241 9.11412 6.11111V8.70735C9.64301 8.70735 10.0743 8.70735 10.5055 8.70735C13.939 8.70735 17.3715 8.70537 20.8049 8.70933C21.1627 8.70933 21.5524 8.65687 21.8695 8.78258C22.1103 8.8776 22.3578 9.18939 22.4255 9.45267C22.5328 9.86641 22.2582 10.1604 21.8511 10.2257C21.4992 10.2821 21.1356 10.2801 20.7779 10.2801C17.3048 10.2841 13.8316 10.2801 10.3585 10.2861C9.93792 10.2861 9.51732 10.3277 9.11025 10.3494V12.9853C10.1941 12.9853 11.1872 12.9684 12.1792 12.9932C12.622 13.0041 12.9382 13.2624 13.0011 13.7336C13.0591 14.1631 12.7081 14.5492 12.1831 14.5897C11.6271 14.6323 11.0663 14.5996 10.5074 14.6095C10.0443 14.6174 9.58113 14.6392 9.10252 14.6561V17.1553C10.3856 17.4018 28.6871 17.3671 29.6415 17.1177V1.78866ZM35.6247 23.9047C32.8042 23.8879 30.4837 26.1991 30.445 29.0636C30.4063 31.9676 32.7278 34.3541 35.6015 34.363C38.4693 34.3719 40.7135 32.13 40.7522 29.217C40.7909 26.2803 38.5138 23.9216 35.6237 23.9037L35.6247 23.9047ZM16.6801 23.9136C13.7688 23.8711 11.4482 26.1466 11.4115 29.0804C11.3747 31.9478 13.6344 34.3184 16.449 34.3649C19.3517 34.4124 21.679 32.1359 21.7303 29.1972C21.7796 26.3545 19.4861 23.9542 16.6801 23.9136Z" fill="#2F5C71"/>
</svg>
