<svg width="39" height="43" viewBox="0 0 39 43" fill="none" xmlns="http://www.w3.org/2000/svg">
<g clip-path="url(#clip0_38_19895)">
<path d="M30.1453 34.5055C29.8874 35.4172 29.649 36.2227 29.431 37.0334C29.0011 38.6332 28.5846 40.2371 28.1568 41.8379C28.0913 42.083 28.0391 42.3436 27.9132 42.5569C27.6267 43.0431 27.0157 43.1296 26.6196 42.7238C26.3883 42.4868 26.2276 42.1737 26.0598 41.8801C24.0354 38.3417 22.0172 34.7991 19.9939 31.2607C19.8506 31.0103 19.6777 30.7765 19.4177 30.383C19.0789 30.9557 18.7996 31.41 18.5376 31.8736C16.634 35.2359 14.7324 38.6002 12.8319 41.9635C12.7695 42.0748 12.7101 42.1871 12.6518 42.3004C12.4491 42.698 12.18 43.0451 11.6938 42.9957C11.22 42.9473 10.9693 42.6084 10.872 42.1459C10.829 41.9388 10.7523 41.739 10.698 41.534C10.1689 39.5201 9.64493 37.5052 9.11172 35.4924C9.03701 35.2101 8.92751 34.9361 8.79037 34.5302C7.70553 34.8104 6.65651 35.0752 5.61158 35.3533C4.34559 35.6901 3.0837 36.0424 1.81771 36.3772C1.49226 36.4638 1.15657 36.5565 0.824978 36.5606C0.220129 36.5688 -0.121698 36.131 0.0400044 35.549C0.129043 35.2286 0.316332 34.9309 0.483151 34.6363C2.32533 31.3853 4.17263 28.1363 6.01584 24.8863C6.26658 24.4444 6.50504 23.9942 6.81002 23.439C5.95238 22.6262 6.2328 21.6981 6.56337 20.6896C7.44148 18.0052 7.70962 18.8354 5.54199 16.9328C3.90449 15.4948 3.89323 14.9797 5.53482 13.5139C6.09976 13.0091 6.66879 12.5085 7.2808 11.9656C6.96865 10.9983 6.65958 10.0774 6.37608 9.14928C5.94931 7.75657 6.25532 7.224 7.69836 6.86758C8.3943 6.69555 9.0974 6.54001 9.80561 6.43493C10.345 6.35562 10.6244 6.12281 10.7052 5.56037C10.8209 4.76306 10.9877 3.96987 11.1719 3.18493C11.4421 2.03326 12.095 1.66345 13.2321 2.00957C13.8789 2.20632 14.5359 2.39483 15.1469 2.67708C15.8981 3.02526 16.3976 2.83778 16.8694 2.18881C17.292 1.60783 17.7925 1.07835 18.297 0.565351C19.0349 -0.184571 19.7503 -0.189721 20.4944 0.565351C21.0583 1.13809 21.5935 1.74689 22.0858 2.3835C22.4614 2.86868 22.8513 2.95624 23.406 2.73889C24.1531 2.44634 24.9156 2.18778 25.6862 1.96527C26.7035 1.67272 27.337 2.02605 27.6001 3.04792C27.8119 3.86995 27.9757 4.70744 28.1077 5.54595C28.1937 6.09397 28.4495 6.35768 28.996 6.43905C29.7472 6.55134 30.4933 6.70997 31.2322 6.88612C32.489 7.18589 32.838 7.79365 32.4726 9.01743C32.3273 9.5057 32.139 9.98161 31.9845 10.4668C31.8309 10.9468 31.6948 11.432 31.5403 11.9512C32.2884 12.63 33.0161 13.2728 33.7243 13.9362C34.7365 14.8849 34.7467 15.5638 33.7499 16.4991C33.2249 16.9915 32.6794 17.4664 32.1114 17.9083C31.6406 18.2751 31.5106 18.6861 31.7255 19.2423C31.9241 19.7574 32.0448 20.3044 32.271 20.806C32.6824 21.7197 32.7889 22.5912 32.052 23.4102C33.7877 26.4449 35.4948 29.4291 37.2009 32.4134C37.6645 33.2241 38.1343 34.0327 38.5866 34.8496C38.8261 35.2822 39.2345 35.7138 38.8282 36.2433C38.3983 36.8037 37.8283 36.5585 37.3084 36.4226C35.5102 35.9508 33.7182 35.4573 31.9241 34.9742C31.3632 34.8228 30.8003 34.6775 30.1464 34.5055H30.1453ZM30.8321 21.8804C30.5557 21.0182 30.3255 20.258 30.0665 19.5071C29.7083 18.4677 29.8915 17.6034 30.7645 16.8854C31.3765 16.3817 31.9394 15.8172 32.5862 15.2228C31.9875 14.6655 31.5014 14.1288 30.9334 13.7034C29.8404 12.8845 29.6684 11.8925 30.1576 10.6708C30.4196 10.0166 30.5844 9.32234 30.8229 8.55079C29.9969 8.36743 29.3112 8.16552 28.6102 8.06972C27.2756 7.88842 26.6053 7.13026 26.4446 5.81378C26.3627 5.14832 26.1939 4.4942 26.0352 3.68659C25.2073 3.94309 24.4827 4.12748 23.7878 4.39325C22.662 4.82281 21.745 4.64872 20.9795 3.65878C20.5025 3.04174 19.9417 2.49166 19.3747 1.86329C18.8343 2.48445 18.3943 2.99642 17.9491 3.50323C16.8775 4.72289 16.3597 4.84238 14.8368 4.32526C14.1808 4.10276 13.5504 3.70617 12.749 3.84214C12.5801 4.66417 12.4062 5.44603 12.2629 6.23406C12.0807 7.23327 11.5096 7.80086 10.5149 7.98835C9.7002 8.14183 8.89476 8.35301 7.97367 8.56418C8.22441 9.35324 8.40555 10.0486 8.66653 10.712C9.12912 11.8853 8.96026 12.8515 7.9358 13.655C7.3463 14.1175 6.81719 14.6573 6.19596 15.2197C6.80286 15.775 7.2982 16.3003 7.86416 16.7299C8.94081 17.5488 9.14857 18.5357 8.65118 19.7646C8.38816 20.4167 8.22543 21.1099 7.9839 21.8928C8.81288 22.0741 9.49756 22.2873 10.1966 22.3646C11.5659 22.516 12.1749 23.3319 12.3622 24.6164C12.4645 25.3169 12.6262 26.0091 12.7797 26.7992C13.5002 26.551 14.0938 26.346 14.6874 26.1431C16.4221 25.5518 16.812 25.6517 18.0043 27.0053C18.4475 27.509 18.8845 28.0179 19.388 28.5968C19.997 27.9066 20.5404 27.3194 21.0511 26.7034C21.7593 25.8474 22.5975 25.5981 23.6465 25.9999C24.3885 26.2842 25.153 26.5087 26.027 26.8003C26.2 25.9082 26.3607 25.1274 26.5019 24.3434C26.6964 23.2659 27.249 22.5923 28.3891 22.4295C29.17 22.3182 29.9335 22.0865 30.8331 21.8784L30.8321 21.8804ZM30.3152 23.7728C29.7953 23.8644 29.4259 23.9654 29.0513 23.987C28.4331 24.0231 28.1742 24.3383 28.0923 24.9389C27.9951 25.6517 27.817 26.3542 27.6656 27.0599C27.3647 28.4587 26.7424 28.8193 25.3987 28.3784C24.4858 28.0786 23.5749 27.7748 22.6272 27.4606C22.0275 28.1662 21.4871 28.8018 20.8966 29.4971C22.8677 32.9366 24.8071 36.3216 26.856 39.8961C27.0259 39.4542 27.117 39.2708 27.1682 39.0761C27.6256 37.3548 28.0678 35.6294 28.5314 33.9101C28.8753 32.6348 29.1516 32.4772 30.4288 32.8202C32.0581 33.257 33.6803 33.7185 35.3106 34.1522C35.5706 34.2212 35.8541 34.2016 36.3156 34.2387C34.2667 30.6653 32.3109 27.2556 30.3142 23.7728H30.3152ZM12.0408 39.9795C14.1122 36.3329 16.0475 32.9284 17.9685 29.5465C17.4783 28.9759 17.0761 28.5391 16.7117 28.0735C16.3535 27.6151 15.9728 27.4523 15.3966 27.6965C14.7375 27.9767 14.0447 28.1806 13.362 28.4011C12.0787 28.8152 11.4656 28.4742 11.1545 27.1423C10.9334 26.1946 10.7595 25.2355 10.5445 24.1879C9.89567 24.0499 9.25807 23.9149 8.56623 23.7676C6.61864 27.2885 4.60554 30.6395 2.65283 34.2933C3.1625 34.2243 3.4071 34.2181 3.63635 34.1573C5.14592 33.7546 6.65139 33.3394 8.15788 32.9294C8.36155 32.8738 8.56316 32.8048 8.76887 32.7636C9.78924 32.5627 10.0666 32.7183 10.3511 33.6927C10.5527 34.385 10.7144 35.0896 10.9017 35.787C11.2517 37.0901 11.6069 38.3911 12.0377 39.9795H12.0408Z" fill="#2F5C71"/>
<path d="M19.4788 9.63708C22.5296 9.65253 25.2499 11.9816 25.255 15.4995C25.2602 19.1862 22.3249 21.4731 19.2598 21.4185C16.1004 21.3629 13.5101 18.6784 13.5255 15.4747C13.5418 12.2165 16.2069 9.60309 19.4778 9.63605L19.4788 9.63708ZM19.4419 19.7209C21.7406 19.7157 23.6257 17.7842 23.592 15.4686C23.5582 13.1559 21.6331 11.2502 19.356 11.276C17.0768 11.3028 15.1916 13.2466 15.2059 15.5571C15.2203 17.8656 17.1126 19.726 19.4419 19.7209Z" fill="#2F5C71"/>
</g>
<defs>
<clipPath id="clip0_38_19895">
<rect width="39" height="43" fill="white"/>
</clipPath>
</defs>
</svg>
