<svg width="42" height="41" viewBox="0 0 42 41" fill="none" xmlns="http://www.w3.org/2000/svg">
<path d="M33.0657 31.2151C32.7704 31.7338 32.5376 32.1318 32.3151 32.5358C30.8612 35.1854 28.6926 36.9634 25.7898 37.8186C25.1029 38.0212 24.6814 38.3578 24.3215 39.0237C23.1045 41.2723 19.6409 41.6764 17.8434 39.8565C16.7843 38.7833 16.7258 37.1506 17.703 35.9353C19.2143 34.055 22.3765 33.9261 23.9873 35.744C24.4579 36.2749 24.8178 36.3854 25.4935 36.1634C28.1522 35.2908 29.9732 33.5271 31.1985 31.076C32.2884 28.896 32.8042 26.5513 33.1979 24.1697C33.4666 22.5462 33.6973 20.9125 34.05 19.3063C34.3217 18.0716 34.2489 16.8787 33.9936 15.6685C32.5971 9.04661 26.9198 4.96994 20.7349 5.16329C14.3798 5.36175 9.2152 10.1453 8.23088 16.4429C7.90687 18.5135 8.31905 20.4746 8.62358 22.4695C8.9035 24.3058 9.22443 26.1349 9.50435 27.9712C9.5874 28.5124 9.64277 29.0658 9.62534 29.6111C9.58227 30.941 8.58052 31.7512 7.2404 31.5814C6.98919 31.5497 6.73798 31.4995 6.49292 31.4341C3.06931 30.5256 -0.0784847 26.4336 0.00149188 22.8909C0.0527589 20.6291 0.796131 18.5565 2.2798 16.8399C2.9514 16.0624 3.25797 15.2205 3.49688 14.268C4.89954 8.67833 8.05759 4.41649 13.2797 1.84159C21.8566 -2.38751 33.1456 0.693779 37.7012 10.7724C38.338 12.1811 38.6702 13.731 39.0895 15.2307C39.272 15.8844 39.4494 16.49 39.8872 17.0516C40.8295 18.2618 41.5011 19.6255 41.8108 21.1457C42.5049 24.5584 41.2438 27.2735 38.7563 29.52C38.1975 30.0244 37.5331 30.4244 36.884 30.8162C35.7172 31.521 34.4878 31.8913 33.0657 31.2141V31.2151ZM7.78075 29.8658C7.78075 29.1016 7.85663 28.4305 7.7664 27.784C7.51006 25.9456 7.21066 24.1134 6.8805 22.2863C6.45806 19.9478 6.23249 17.6296 6.74721 15.2593C8.26164 8.28959 14.0927 3.51625 21.1748 3.52341C28.3388 3.53057 34.2079 8.30187 35.6423 15.3412C35.8505 16.3631 35.9981 17.4516 35.8782 18.4757C35.6434 20.4828 35.1973 22.4664 34.8426 24.4602C34.6139 25.7482 34.3566 27.0321 34.1833 28.3282C34.1207 28.7988 34.0869 29.4719 34.3545 29.743C34.8149 30.2085 35.3778 29.6776 35.8371 29.4402C37.2501 28.7067 38.4169 27.6817 39.2731 26.3262C40.3794 24.5738 40.6911 22.6945 39.9139 20.7621C39.4781 19.6787 38.786 18.6997 38.2364 17.6593C37.9863 17.1867 37.7453 16.6966 37.5956 16.1862C37.2049 14.8532 36.9845 13.4609 36.4882 12.1719C33.4409 4.26714 24.8311 -0.0693837 16.732 2.33775C10.2118 4.27532 6.4314 8.83894 4.97644 15.3852C4.78778 16.2353 4.50991 16.936 3.89163 17.5908C3.29386 18.223 2.82118 19.0158 2.45308 19.8117C0.564404 23.9047 2.83246 28.6525 7.21476 29.8617C7.3296 29.8934 7.45982 29.8658 7.77973 29.8658H7.78075ZM20.899 39.3245C21.6311 39.2406 22.4103 38.9828 22.8861 38.1777C23.1875 37.6672 23.0645 37.1721 22.6851 36.7926C22.0412 36.1501 21.2445 35.9803 20.3566 36.2094C19.3035 36.4816 18.596 37.2335 18.7088 37.9864C18.8175 38.7148 19.766 39.3337 20.899 39.3245Z" fill="#2F5C71"/>
</svg>
