<?xml version="1.0" encoding="UTF-8"?>
<svg id="_Шар_1" data-name="Шар 1" width="96" height="38" xmlns="http://www.w3.org/2000/svg" viewBox="27.861 120.019 579.989 252.821">
  <defs>
    <style>
      .cls-1 {
        fill: #2d5b73;
      }
    </style>
  </defs>
  <path class="cls-1" d="M207.95,151.14v32.78h-62.44v144.39h-35.55v-144.58h-62.8v-32.78h160.79v.18Z"/>
  <path class="cls-1" d="M576.86,170.29c-11.6-12.34-27.81-19.34-44.94-19.34h-75.7v177.55h32.05v-55.62c0,.18,0-2.76,0-2.76h44.94c31.49,0,57.46-24.5,59.49-55.81,1.11-16.39-4.6-31.86-15.84-44.02ZM532.47,235.3h-41.44v-49.54h42.18c14,0,25.42,11.79,24.86,25.97-.55,13.44-12.16,23.57-25.6,23.57Z"/>
  <path class="cls-1" d="M331.72,148.56c-34.44,0-65.75,19.15-81.41,49.91l-1.84,3.5h35.36l.74-.92c11.6-14.18,28.92-22.29,47.15-22.29,27.63,0,51.94,18.79,59.12,45.31h-172.57l-.18,2.21c-.55,4.97-.92,9.58-.92,14s.18,8.84.74,13.44l.18,2.21h23.57c3.68,20.63,14.37,39.41,30.2,53.23,16.58,14.37,37.94,22.29,59.86,22.29,34.44,0,65.75-19.15,81.41-49.91l1.84-3.5h-35.36l-.74.92c-11.6,14.18-28.92,22.29-47.15,22.29-27.63,0-51.94-18.79-59.12-45.31h149.18l.37-2.03c.74-4.6,1.11-9.21,1.11-13.81-.18-50.83-41.07-91.54-91.54-91.54Z"/>
</svg>