<svg width="94" height="36" viewBox="0 0 94 36" fill="none" xmlns="http://www.w3.org/2000/svg">
<path d="M31 6V10.4451H22.8463V30H18.2036V10.4451H10V6H31Z" fill="#2F5C71"/>
<path d="M64 6H85V30H80.0914V10.4795H68.9432V30H64V6Z" fill="#2F5C71"/>
<path d="M47.47 6.00313C43.1242 5.98642 39.1485 8.52637 37.1849 12.5535L36.9595 13.0214H41.4341L41.5307 12.9044C44.2508 9.47885 49.1117 8.99426 52.4113 11.8183C53.6507 12.871 54.536 14.3081 54.9544 15.9123H33.1449L33.1127 16.1964C33.0322 16.7979 33 17.4162 33 18.0345C33 18.6193 33.0322 19.2209 33.0966 19.8058L33.1288 20.0898H36.0904C37.201 26.6068 43.1885 30.9682 49.4819 29.8152C53.0552 29.1635 56.1133 26.8073 57.7712 23.4486L57.9965 22.9807H53.5219L53.4254 23.0977C50.7213 26.5232 45.8604 27.0078 42.5608 24.2005C41.3214 23.1478 40.4201 21.694 40.0016 20.0898H58.8335L58.8657 19.8225C59.8314 13.2721 55.4856 7.15614 49.1761 6.15352C48.6289 6.03655 48.0494 5.98642 47.47 6.00313Z" fill="#2F5C71"/>
</svg>
