<svg width="51" height="32" viewBox="0 0 51 32" fill="none" xmlns="http://www.w3.org/2000/svg">
<g clip-path="url(#clip0_4237_2410)">
<path d="M47.9771 -0.432617H3.02794C1.11834 -0.432617 -0.429688 1.11624 -0.429688 3.02684V28.9728C-0.429688 30.8834 1.11834 32.4323 3.02794 32.4323H47.9771C49.8867 32.4323 51.4347 30.8834 51.4347 28.9728V3.02684C51.4347 1.11624 49.8867 -0.432617 47.9771 -0.432617Z" stroke="#F5F5F5"/>
<path d="M18.7995 26.7506V25.3215C18.8184 25.079 18.7193 24.8409 18.5274 24.6681C18.3356 24.4953 18.0695 24.4045 17.7972 24.4187C17.4373 24.3977 17.0932 24.5529 16.8991 24.8237C16.722 24.5609 16.3979 24.4056 16.0544 24.4187C15.7553 24.4053 15.4705 24.534 15.306 24.757V24.4759H14.75V26.7506H15.3113V25.4906C15.2861 25.3327 15.3418 25.1732 15.4631 25.0559C15.5843 24.9387 15.7582 24.8761 15.9368 24.8856C16.3057 24.8856 16.4928 25.1 16.4928 25.4858V26.7506H17.0541V25.4906C17.0309 25.3331 17.0873 25.1746 17.2081 25.0578C17.3288 24.9409 17.5015 24.8779 17.6796 24.8856C18.0591 24.8856 18.2409 25.1 18.2409 25.4858V26.7506H18.7995ZM21.9269 25.6144V24.4783H21.3655V24.7546C21.1743 24.5346 20.8757 24.4105 20.5637 24.4211C19.8256 24.4211 19.2272 24.9543 19.2272 25.6121C19.2272 26.2698 19.8256 26.803 20.5637 26.803C20.8757 26.8136 21.1743 26.6895 21.3655 26.4695V26.7458H21.9215L21.9269 25.6144ZM19.8607 25.6144C19.8854 25.2406 20.2409 24.953 20.6608 24.9671C21.0807 24.9811 21.411 25.2917 21.4042 25.6661C21.3974 26.0405 21.056 26.3413 20.6358 26.3433C20.4207 26.3478 20.2134 26.2713 20.0648 26.1325C19.9163 25.9938 19.8402 25.8057 19.8553 25.6144H19.8607ZM33.8055 24.4235C33.9885 24.4231 34.1699 24.4538 34.34 24.514C34.5024 24.572 34.6504 24.6577 34.7757 24.7665C34.8994 24.8743 34.9976 25.003 35.0644 25.1452C35.2041 25.4506 35.2041 25.7926 35.0644 26.098C34.9976 26.2402 34.8995 26.3689 34.7757 26.4767C34.6504 26.5854 34.5024 26.6712 34.34 26.7292C33.9876 26.8512 33.5966 26.8512 33.2441 26.7292C33.0825 26.6713 32.9354 26.5855 32.8111 26.4767C32.6886 26.3685 32.5914 26.2398 32.5251 26.098C32.3857 25.7925 32.3857 25.4507 32.5251 25.1452C32.5914 25.0034 32.6886 24.8746 32.8111 24.7665C32.9354 24.6577 33.0825 24.5719 33.2441 24.514C33.4204 24.4489 33.6093 24.4157 33.8001 24.4163L33.8055 24.4235ZM33.8055 24.8999C33.6966 24.8986 33.5885 24.9164 33.4874 24.9523C33.3921 24.9863 33.3057 25.0374 33.2334 25.1023C33.1597 25.1707 33.1024 25.2518 33.065 25.3405C32.9834 25.5307 32.9834 25.741 33.065 25.9312C33.1024 26.02 33.1597 26.1011 33.2334 26.1694C33.3056 26.2344 33.3921 26.2855 33.4874 26.3195C33.691 26.3905 33.9172 26.3905 34.1209 26.3195C34.2207 26.2866 34.3118 26.2355 34.3882 26.1694C34.462 26.1012 34.5194 26.0201 34.5566 25.9312C34.6382 25.741 34.6382 25.5307 34.5566 25.3405C34.5194 25.2517 34.462 25.1706 34.3882 25.1023C34.3118 25.0363 34.2207 24.9852 34.1209 24.9523C34.02 24.9111 33.911 24.8885 33.8001 24.8856L33.8055 24.8999ZM24.9473 25.6144C24.9473 24.8999 24.4501 24.4235 23.7365 24.4235C22.9983 24.4327 22.4084 24.9734 22.4187 25.6311C22.429 26.2888 23.0358 26.8146 23.7739 26.8054C24.1544 26.817 24.5264 26.7034 24.819 26.4862L24.5517 26.1194C24.3406 26.2702 24.0792 26.354 23.8086 26.3576C23.4265 26.3869 23.0876 26.1398 23.0442 25.8002H24.9393C24.9473 25.7407 24.9473 25.6811 24.9473 25.6144ZM23.0468 25.4144C23.0683 25.1001 23.3646 24.8572 23.7177 24.8641C23.8858 24.861 24.0483 24.9174 24.1696 25.021C24.291 25.1247 24.3611 25.267 24.3646 25.4167L23.0468 25.4144ZM27.2861 25.0571C27.042 24.9318 26.7659 24.8646 26.4842 24.8618C26.1795 24.8618 25.9978 24.9618 25.9978 25.1285C25.9978 25.2953 26.1902 25.3238 26.4308 25.3524L26.6981 25.3858C27.2541 25.4572 27.5908 25.6668 27.5908 26.067C27.5908 26.4671 27.1632 26.8101 26.4281 26.8101C26.0342 26.8195 25.6472 26.716 25.3242 26.5148L25.5915 26.1289C25.8368 26.2911 26.1362 26.375 26.4415 26.3671C26.821 26.3671 27.0242 26.2671 27.0242 26.0908C27.0242 25.9622 26.8798 25.8907 26.5751 25.8526L26.3078 25.8193C25.7358 25.7478 25.4258 25.5192 25.4258 25.1476C25.4258 24.695 25.8427 24.4187 26.4949 24.4187C26.86 24.4078 27.2208 24.4905 27.5347 24.6569L27.2861 25.0571ZM29.9591 24.9285H29.053V25.955C29.053 26.1932 29.1438 26.3361 29.4218 26.3361C29.5953 26.331 29.7645 26.2868 29.9136 26.2075L30.074 26.6315C29.8656 26.7474 29.6247 26.8085 29.3791 26.8078C28.7215 26.8078 28.4916 26.4933 28.4916 25.9646V24.9285H27.9731V24.4759H28.4916V23.7852H29.053V24.4759H29.9591V24.9285ZM31.8809 24.4187C32.0158 24.4192 32.1496 24.4401 32.2765 24.4807L32.1055 24.957C31.995 24.9178 31.8769 24.8984 31.758 24.8999C31.3945 24.8999 31.2234 25.1095 31.2234 25.4858V26.7601H30.6674V24.4854H31.218V24.7617C31.357 24.549 31.6155 24.421 31.8916 24.4283L31.8809 24.4187ZM35.7246 26.4195C35.7594 26.4191 35.7939 26.4248 35.8262 26.4362C35.8569 26.4473 35.885 26.4635 35.9091 26.4838C35.9326 26.5044 35.9516 26.5286 35.9652 26.5553C35.9926 26.6115 35.9926 26.6753 35.9652 26.7315C35.9516 26.7582 35.9326 26.7825 35.9091 26.803C35.885 26.8233 35.8569 26.8395 35.8262 26.8506C35.7942 26.8632 35.7596 26.8697 35.7246 26.8697C35.6212 26.869 35.5275 26.8152 35.4841 26.7315C35.457 26.6753 35.457 26.6116 35.4841 26.5553C35.4977 26.5286 35.5167 26.5044 35.5402 26.4838C35.5643 26.4635 35.5924 26.4473 35.6231 26.4362C35.6512 26.4262 35.681 26.4206 35.7113 26.4195H35.7246ZM35.7246 26.8221C35.7513 26.8222 35.7777 26.8173 35.8021 26.8078C35.8251 26.7986 35.846 26.7857 35.8636 26.7696C35.9097 26.7283 35.9298 26.6694 35.9175 26.6123C35.9052 26.5551 35.8621 26.507 35.8021 26.4838C35.7777 26.4743 35.7513 26.4695 35.7246 26.4695C35.698 26.4697 35.6716 26.4745 35.6471 26.4838C35.6231 26.4926 35.6013 26.5056 35.583 26.5219C35.5137 26.5893 35.5137 26.6927 35.583 26.7601C35.6204 26.7939 35.6714 26.8127 35.7246 26.8125V26.8221ZM35.7407 26.5386C35.7656 26.5375 35.7902 26.5443 35.8102 26.5577C35.8268 26.5699 35.8357 26.5885 35.8342 26.6077C35.835 26.6237 35.8282 26.6392 35.8155 26.6506C35.8 26.6631 35.7803 26.6706 35.7594 26.672L35.8369 26.7506H35.7754L35.7032 26.672H35.6792V26.7506H35.6284V26.5315L35.7407 26.5386ZM35.6819 26.5791V26.6363H35.7407C35.7511 26.639 35.7623 26.639 35.7727 26.6363C35.7766 26.6295 35.7766 26.6216 35.7727 26.6148C35.7766 26.6081 35.7766 26.6001 35.7727 26.5934C35.7623 26.5906 35.7511 26.5906 35.7407 26.5934L35.6819 26.5791Z" fill="black"/>
<path d="M29.1542 7.12109H20.7344V20.6049H29.1542V7.12109Z" fill="#7673C0"/>
<path d="M21.2682 13.8642C21.2651 11.2325 22.6204 8.74588 24.9435 7.12107C20.9982 4.35811 15.3325 4.76056 11.9282 8.04559C8.52392 11.3306 8.52392 16.3953 11.9282 19.6803C15.3325 22.9654 20.9982 23.3678 24.9435 20.6049C22.6212 18.9806 21.2659 16.4949 21.2682 13.8642Z" fill="#EB001B"/>
<path d="M39.7319 20.0575V19.0849H39.9496V18.8765H39.3984V19.0849H39.6161V20.0923L39.7319 20.0575ZM40.8017 20.0575V18.8418H40.635L40.4405 19.7102L40.246 18.8418H40.0746V20.0575H40.195V19.1457L40.3757 19.936H40.5007L40.6813 19.1457V20.0662L40.8017 20.0575Z" fill="#00A1DF"/>
<path d="M40.5126 13.8641C40.5117 17.1463 38.4084 20.14 35.0956 21.5745C31.7827 23.0089 27.8416 22.6325 24.9453 20.6048C27.2667 18.9791 28.622 16.4938 28.622 13.8629C28.622 11.232 27.2667 8.74669 24.9453 7.12102C27.8416 5.09193 31.7838 4.71458 35.0976 6.14924C38.4115 7.58391 40.5152 10.5787 40.5152 13.8617L40.5126 13.8641Z" fill="#00A1DF"/>
</g>
<defs>
<clipPath id="clip0_4237_2410">
<rect width="51" height="32" fill="white"/>
</clipPath>
</defs>
</svg>
