<svg width="51" height="32" viewBox="0 0 51 32" fill="none" xmlns="http://www.w3.org/2000/svg">
<g clip-path="url(#clip0_4237_2401)">
<path d="M47.9746 0H3.02542C1.35453 0 0 1.35525 0 3.02703V28.973C0 30.6448 1.35453 32 3.02542 32H47.9746C49.6455 32 51 30.6448 51 28.973V3.02703C51 1.35525 49.6455 0 47.9746 0Z" stroke="#F5F5F5"/>
<path d="M30.5185 7.10938H20.3047V23.9921H30.5185V7.10938Z" fill="#FF5F00"/>
<path d="M21.3541 15.5523C21.3515 12.2583 22.8456 9.14612 25.406 7.11242C21.0564 3.65298 14.8102 4.15688 11.057 8.26999C7.3039 12.3831 7.3039 18.7245 11.057 22.8376C14.8102 26.9507 21.0564 27.4546 25.406 23.9952C22.8449 21.9608 21.3506 18.8473 21.3541 15.5523Z" fill="#EB001B"/>
<path d="M41.6576 23.0864V22.0114H41.8737V21.7891H41.3594V22.0114H41.5625V23.0864H41.6576ZM42.656 23.0864V21.7891H42.5004L42.3189 22.7157L42.1373 21.7891H41.9817V23.0864H42.0941V22.1041L42.2627 22.9474H42.3794L42.5479 22.1041V23.0864H42.656Z" fill="#F79E1B"/>
<path d="M42.5716 15.5526C42.5716 19.6631 40.2523 23.4129 36.5989 25.2091C32.9454 27.0055 28.5993 26.533 25.4062 23.9925C27.9654 21.957 29.4597 18.8452 29.4597 15.551C29.4597 12.2569 27.9654 9.14515 25.4062 7.10968C28.5993 4.5691 32.9454 4.09663 36.5989 5.89294C40.2523 7.68924 42.5716 11.4389 42.5716 15.5496V15.5526Z" fill="#F79E1B"/>
</g>
<defs>
<clipPath id="clip0_4237_2401">
<rect width="51" height="32" fill="white"/>
</clipPath>
</defs>
</svg>
