<svg width="49" height="32" viewBox="0 0 49 32" fill="none" xmlns="http://www.w3.org/2000/svg">
<path d="M18.6041 8.47995L12.1887 23.5579H8.00333L4.84783 11.5259C4.655 10.784 4.4894 10.5136 3.90639 10.2007C2.95588 9.69341 1.3838 9.21521 0 8.91794L0.0952777 8.47995H6.83278C7.69028 8.47995 8.46383 9.04315 8.65894 10.0175L10.3263 18.7442L14.4459 8.47995H18.6041ZM35.0055 18.637C35.0214 14.6569 29.4182 14.4379 29.4567 12.6612C29.468 12.1204 29.9921 11.546 31.1354 11.3986C31.7025 11.3248 33.2655 11.269 35.0395 12.0735L35.7337 8.87552C34.7832 8.53361 33.5559 8.20508 32.0315 8.20508C28.1183 8.20508 25.3643 10.2544 25.3393 13.1908C25.3144 15.3608 27.3062 16.572 28.8057 17.2939C30.3483 18.0336 30.8655 18.5074 30.8587 19.1666C30.8496 20.179 29.6291 20.6237 28.4903 20.6416C26.4986 20.6729 25.3439 20.1119 24.4229 19.6896L23.706 22.9925C24.6316 23.4104 26.3375 23.7747 28.1092 23.7926C32.2697 23.7948 34.9919 21.7701 35.0055 18.637ZM45.3386 23.5579H49L45.8037 8.47995H42.4236C41.6636 8.47995 41.0239 8.91572 40.738 9.58617L34.7991 23.5579H38.9572L39.783 21.3053H44.8622L45.3386 23.5579ZM40.9195 18.2168L43.0043 12.554L44.2043 18.2168H40.9195ZM24.2618 8.47995L20.9883 23.5579H17.0275L20.3033 8.47995H24.2618Z" fill="#10357F"/>
</svg>
